<?xml version="1.0" standalone="no"?>
<!DOCTYPE svg PUBLIC "-//W3C//DTD SVG 20010904//EN"
 "http://www.w3.org/TR/2001/REC-SVG-20010904/DTD/svg10.dtd">
<svg version="1.0" xmlns="http://www.w3.org/2000/svg"
 width="300.000000pt" height="300.000000pt" viewBox="0 0 300.000000 300.000000"
 preserveAspectRatio="xMidYMid meet">
<metadata>
Created by potrace 1.11, written by Peter Selinger 2001-2013
</metadata>
<g transform="translate(0.000000,300.000000) scale(0.100000,-0.100000)"
fill="#000000" stroke="none">
<path d="M564 1930 c-56 -23 -72 -108 -30 -157 32 -37 93 -39 130 -4 36 33 37
107 3 139 -27 25 -73 35 -103 22z"/>
<path d="M2160 1725 l0 -85 -40 0 -40 0 0 -60 0 -60 40 0 40 0 0 -160 c0 -218
20 -265 128 -296 59 -17 119 -13 183 13 l37 14 -17 62 c-12 44 -21 61 -32 58
-8 -2 -33 -6 -55 -8 -66 -8 -74 12 -74 179 l0 138 85 0 85 0 0 60 0 60 -85 0
-85 0 0 85 0 85 -85 0 -85 0 0 -85z"/>
<path d="M517 1664 c-4 -4 -7 -142 -7 -306 l0 -298 90 0 90 0 -2 303 -3 302
-80 3 c-45 1 -84 0 -88 -4z"/>
<path d="M1003 1651 c-102 -35 -161 -100 -188 -209 -71 -277 217 -482 486
-346 104 52 154 151 147 288 -7 136 -70 224 -193 267 -70 24 -181 25 -252 0z
m206 -148 c42 -32 64 -69 69 -121 6 -65 -11 -114 -53 -151 -47 -41 -95 -49
-154 -25 -60 25 -91 77 -91 152 0 84 40 147 105 165 35 10 97 -1 124 -20z"/>
<path d="M1656 1656 c-106 -39 -152 -144 -107 -243 23 -50 74 -82 180 -113 86
-25 128 -59 111 -90 -23 -43 -130 -38 -224 10 -33 17 -60 29 -61 28 -2 -2 -15
-27 -30 -57 -21 -43 -24 -56 -13 -63 40 -28 122 -58 185 -69 214 -35 366 98
294 258 -22 47 -72 80 -161 108 -91 27 -129 47 -136 68 -8 27 27 57 67 57 33
0 147 -36 167 -52 7 -6 14 -9 16 -7 6 7 56 108 56 114 0 3 -26 18 -57 33 -47
21 -76 27 -153 29 -65 2 -107 -1 -134 -11z"/>
</g>
</svg>
